<svg width="240" height="70" viewBox="0 0 240 70" fill="none" xmlns="http://www.w3.org/2000/svg">
<path d="M12.1302 34.408C13.0742 34.584 13.8502 35.056 14.4582 35.824C15.0662 36.592 15.3702 37.472 15.3702 38.464C15.3702 39.36 15.1462 40.152 14.6982 40.84C14.2662 41.512 13.6342 42.04 12.8022 42.424C11.9702 42.808 10.9862 43 9.85016 43H2.62616V26.248H9.53816C10.6742 26.248 11.6502 26.432 12.4662 26.8C13.2982 27.168 13.9222 27.68 14.3382 28.336C14.7702 28.992 14.9862 29.736 14.9862 30.568C14.9862 31.544 14.7222 32.36 14.1942 33.016C13.6822 33.672 12.9942 34.136 12.1302 34.408ZM5.98616 33.16H9.05816C9.85816 33.16 10.4742 32.984 10.9062 32.632C11.3382 32.264 11.5542 31.744 11.5542 31.072C11.5542 30.4 11.3382 29.88 10.9062 29.512C10.4742 29.144 9.85816 28.96 9.05816 28.96H5.98616V33.16ZM9.37016 40.264C10.1862 40.264 10.8182 40.072 11.2662 39.688C11.7302 39.304 11.9622 38.76 11.9622 38.056C11.9622 37.336 11.7222 36.776 11.2422 36.376C10.7622 35.96 10.1142 35.752 9.29816 35.752H5.98616V40.264H9.37016ZM31.128 36.064C31.128 36.544 31.096 36.976 31.032 37.36H21.312C21.392 38.32 21.728 39.072 22.32 39.616C22.912 40.16 23.64 40.432 24.504 40.432C25.752 40.432 26.64 39.896 27.168 38.824H30.792C30.408 40.104 29.672 41.16 28.584 41.992C27.496 42.808 26.16 43.216 24.576 43.216C23.296 43.216 22.144 42.936 21.12 42.376C20.112 41.8 19.32 40.992 18.744 39.952C18.184 38.912 17.904 37.712 17.904 36.352C17.904 34.976 18.184 33.768 18.744 32.728C19.304 31.688 20.088 30.888 21.096 30.328C22.104 29.768 23.264 29.488 24.576 29.488C25.84 29.488 26.968 29.76 27.96 30.304C28.968 30.848 29.744 31.624 30.288 32.632C30.848 33.624 31.128 34.768 31.128 36.064ZM27.648 35.104C27.632 34.24 27.32 33.552 26.712 33.04C26.104 32.512 25.36 32.248 24.48 32.248C23.648 32.248 22.944 32.504 22.368 33.016C21.808 33.512 21.464 34.208 21.336 35.104H27.648ZM33.4365 36.304C33.4365 34.96 33.7005 33.768 34.2285 32.728C34.7725 31.688 35.5085 30.888 36.4365 30.328C37.3645 29.768 38.3965 29.488 39.5325 29.488C40.3965 29.488 41.2205 29.68 42.0045 30.064C42.7885 30.432 43.4125 30.928 43.8765 31.552V25.24H47.2845V43H43.8765V41.032C43.4605 41.688 42.8765 42.216 42.1245 42.616C41.3725 43.016 40.5005 43.216 39.5085 43.216C38.3885 43.216 37.3645 42.928 36.4365 42.352C35.5085 41.776 34.7725 40.968 34.2285 39.928C33.7005 38.872 33.4365 37.664 33.4365 36.304ZM43.9005 36.352C43.9005 35.536 43.7405 34.84 43.4205 34.264C43.1005 33.672 42.6685 33.224 42.1245 32.92C41.5805 32.6 40.9965 32.44 40.3725 32.44C39.7485 32.44 39.1725 32.592 38.6445 32.896C38.1165 33.2 37.6845 33.648 37.3485 34.24C37.0285 34.816 36.8685 35.504 36.8685 36.304C36.8685 37.104 37.0285 37.808 37.3485 38.416C37.6845 39.008 38.1165 39.464 38.6445 39.784C39.1885 40.104 39.7645 40.264 40.3725 40.264C40.9965 40.264 41.5805 40.112 42.1245 39.808C42.6685 39.488 43.1005 39.04 43.4205 38.464C43.7405 37.872 43.9005 37.168 43.9005 36.352ZM54.6462 25.24V43H51.2862V25.24H54.6462Z" fill="#555555"/>
<g clip-path="url(#clip0_57_3218)">
<path d="M65.3749 37.7058V43H58.5V32.8989C58.4997 32.2763 58.7629 31.6786 59.2325 31.2352L67.6164 23.3449C67.7317 23.2357 67.8693 23.1489 68.021 23.0897C68.1727 23.0305 68.3356 23 68.5001 23C68.6647 23 68.8276 23.0305 68.9793 23.0897C69.131 23.1489 69.2686 23.2357 69.3839 23.3449L77.7675 31.2352C78.2364 31.6766 78.5 32.2752 78.5 32.8989V43H71.6251V37.7058C71.6251 36.0811 70.2263 34.7647 68.5 34.7647C66.7737 34.7647 65.3749 36.0811 65.3749 37.7058Z" fill="#555555"/>
</g>
<path d="M88.5976 29.512C90.1816 29.512 91.4616 30.016 92.4376 31.024C93.4136 32.016 93.9016 33.408 93.9016 35.2V43H90.5416V35.656C90.5416 34.6 90.2776 33.792 89.7496 33.232C89.2216 32.656 88.5016 32.368 87.5896 32.368C86.6616 32.368 85.9256 32.656 85.3816 33.232C84.8536 33.792 84.5896 34.6 84.5896 35.656V43H81.2296V29.704H84.5896V31.36C85.0376 30.784 85.6056 30.336 86.2936 30.016C86.9976 29.68 87.7656 29.512 88.5976 29.512ZM96.9528 36.304C96.9528 34.96 97.2168 33.768 97.7448 32.728C98.2888 31.688 99.0248 30.888 99.9528 30.328C100.881 29.768 101.913 29.488 103.049 29.488C103.913 29.488 104.737 29.68 105.521 30.064C106.305 30.432 106.929 30.928 107.393 31.552V25.24H110.801V43H107.393V41.032C106.977 41.688 106.393 42.216 105.641 42.616C104.889 43.016 104.017 43.216 103.025 43.216C101.905 43.216 100.881 42.928 99.9528 42.352C99.0248 41.776 98.2888 40.968 97.7448 39.928C97.2168 38.872 96.9528 37.664 96.9528 36.304ZM107.417 36.352C107.417 35.536 107.257 34.84 106.937 34.264C106.617 33.672 106.185 33.224 105.641 32.92C105.097 32.6 104.513 32.44 103.889 32.44C103.265 32.44 102.689 32.592 102.161 32.896C101.633 33.2 101.201 33.648 100.865 34.24C100.545 34.816 100.385 35.504 100.385 36.304C100.385 37.104 100.545 37.808 100.865 38.416C101.201 39.008 101.633 39.464 102.161 39.784C102.705 40.104 103.281 40.264 103.889 40.264C104.513 40.264 105.097 40.112 105.641 39.808C106.185 39.488 106.617 39.04 106.937 38.464C107.257 37.872 107.417 37.168 107.417 36.352Z" fill="#555555"/>
<path d="M139.863 26.32V43H137.127V31.576L132.039 43H130.143L125.031 31.576V43H122.295V26.32H125.247L131.103 39.4L136.935 26.32H139.863ZM142.787 36.328C142.787 35 143.059 33.824 143.603 32.8C144.163 31.776 144.915 30.984 145.859 30.424C146.819 29.848 147.875 29.56 149.027 29.56C150.067 29.56 150.971 29.768 151.739 30.184C152.523 30.584 153.147 31.088 153.611 31.696V29.776H156.371V43H153.611V41.032C153.147 41.656 152.515 42.176 151.715 42.592C150.915 43.008 150.003 43.216 148.979 43.216C147.843 43.216 146.803 42.928 145.859 42.352C144.915 41.76 144.163 40.944 143.603 39.904C143.059 38.848 142.787 37.656 142.787 36.328ZM153.611 36.376C153.611 35.464 153.419 34.672 153.035 34C152.667 33.328 152.179 32.816 151.571 32.464C150.963 32.112 150.307 31.936 149.603 31.936C148.899 31.936 148.243 32.112 147.635 32.464C147.027 32.8 146.531 33.304 146.147 33.976C145.779 34.632 145.595 35.416 145.595 36.328C145.595 37.24 145.779 38.04 146.147 38.728C146.531 39.416 147.027 39.944 147.635 40.312C148.259 40.664 148.915 40.84 149.603 40.84C150.307 40.84 150.963 40.664 151.571 40.312C152.179 39.96 152.667 39.448 153.035 38.776C153.419 38.088 153.611 37.288 153.611 36.376ZM166.877 29.56C167.917 29.56 168.845 29.776 169.661 30.208C170.493 30.64 171.141 31.28 171.605 32.128C172.069 32.976 172.301 34 172.301 35.2V43H169.589V35.608C169.589 34.424 169.293 33.52 168.701 32.896C168.109 32.256 167.301 31.936 166.277 31.936C165.253 31.936 164.437 32.256 163.829 32.896C163.237 33.52 162.941 34.424 162.941 35.608V43H160.205V29.776H162.941V31.288C163.389 30.744 163.957 30.32 164.645 30.016C165.349 29.712 166.093 29.56 166.877 29.56ZM175.118 36.328C175.118 35 175.39 33.824 175.934 32.8C176.494 31.776 177.246 30.984 178.19 30.424C179.15 29.848 180.206 29.56 181.358 29.56C182.398 29.56 183.302 29.768 184.07 30.184C184.854 30.584 185.478 31.088 185.942 31.696V29.776H188.702V43H185.942V41.032C185.478 41.656 184.846 42.176 184.046 42.592C183.246 43.008 182.334 43.216 181.31 43.216C180.174 43.216 179.134 42.928 178.19 42.352C177.246 41.76 176.494 40.944 175.934 39.904C175.39 38.848 175.118 37.656 175.118 36.328ZM185.942 36.376C185.942 35.464 185.75 34.672 185.366 34C184.998 33.328 184.51 32.816 183.902 32.464C183.294 32.112 182.638 31.936 181.934 31.936C181.23 31.936 180.574 32.112 179.966 32.464C179.358 32.8 178.862 33.304 178.478 33.976C178.11 34.632 177.926 35.416 177.926 36.328C177.926 37.24 178.11 38.04 178.478 38.728C178.862 39.416 179.358 39.944 179.966 40.312C180.59 40.664 181.246 40.84 181.934 40.84C182.638 40.84 183.294 40.664 183.902 40.312C184.51 39.96 184.998 39.448 185.366 38.776C185.75 38.088 185.942 37.288 185.942 36.376ZM197.864 29.56C198.888 29.56 199.792 29.768 200.576 30.184C201.376 30.584 202 31.088 202.448 31.696V29.776H205.208V43.216C205.208 44.432 204.952 45.512 204.44 46.456C203.928 47.416 203.184 48.168 202.208 48.712C201.248 49.256 200.096 49.528 198.752 49.528C196.96 49.528 195.472 49.104 194.288 48.256C193.104 47.424 192.432 46.288 192.272 44.848H194.984C195.192 45.536 195.632 46.088 196.304 46.504C196.992 46.936 197.808 47.152 198.752 47.152C199.856 47.152 200.744 46.816 201.416 46.144C202.104 45.472 202.448 44.496 202.448 43.216V41.008C201.984 41.632 201.352 42.16 200.552 42.592C199.768 43.008 198.872 43.216 197.864 43.216C196.712 43.216 195.656 42.928 194.696 42.352C193.752 41.76 193 40.944 192.44 39.904C191.896 38.848 191.624 37.656 191.624 36.328C191.624 35 191.896 33.824 192.44 32.8C193 31.776 193.752 30.984 194.696 30.424C195.656 29.848 196.712 29.56 197.864 29.56ZM202.448 36.376C202.448 35.464 202.256 34.672 201.872 34C201.504 33.328 201.016 32.816 200.408 32.464C199.8 32.112 199.144 31.936 198.44 31.936C197.736 31.936 197.08 32.112 196.472 32.464C195.864 32.8 195.368 33.304 194.984 33.976C194.616 34.632 194.432 35.416 194.432 36.328C194.432 37.24 194.616 38.04 194.984 38.728C195.368 39.416 195.864 39.944 196.472 40.312C197.096 40.664 197.752 40.84 198.44 40.84C199.144 40.84 199.8 40.664 200.408 40.312C201.016 39.96 201.504 39.448 201.872 38.776C202.256 38.088 202.448 37.288 202.448 36.376ZM221.162 36.064C221.162 36.56 221.13 37.008 221.066 37.408H210.962C211.042 38.464 211.434 39.312 212.138 39.952C212.842 40.592 213.706 40.912 214.73 40.912C216.202 40.912 217.242 40.296 217.85 39.064H220.802C220.402 40.28 219.674 41.28 218.618 42.064C217.578 42.832 216.282 43.216 214.73 43.216C213.466 43.216 212.33 42.936 211.322 42.376C210.33 41.8 209.546 41 208.97 39.976C208.41 38.936 208.13 37.736 208.13 36.376C208.13 35.016 208.402 33.824 208.946 32.8C209.506 31.76 210.282 30.96 211.274 30.4C212.282 29.84 213.434 29.56 214.73 29.56C215.978 29.56 217.09 29.832 218.066 30.376C219.042 30.92 219.802 31.688 220.346 32.68C220.89 33.656 221.162 34.784 221.162 36.064ZM218.306 35.2C218.29 34.192 217.93 33.384 217.226 32.776C216.522 32.168 215.65 31.864 214.61 31.864C213.666 31.864 212.858 32.168 212.186 32.776C211.514 33.368 211.114 34.176 210.986 35.2H218.306ZM226.83 31.696C227.23 31.024 227.758 30.504 228.414 30.136C229.086 29.752 229.878 29.56 230.79 29.56V32.392H230.094C229.022 32.392 228.206 32.664 227.646 33.208C227.102 33.752 226.83 34.696 226.83 36.04V43H224.094V29.776H226.83V31.696Z" fill="#7C7C7C"/>
<defs>
<clipPath id="clip0_57_3218">
<rect width="22" height="26" fill="white" transform="translate(57.5 22)"/>
</clipPath>
</defs>
</svg>
