<svg width="240" height="70" viewBox="0 0 240 70" fill="none" xmlns="http://www.w3.org/2000/svg">
<path d="M75.6302 34.408C76.5742 34.584 77.3502 35.056 77.9582 35.824C78.5662 36.592 78.8702 37.472 78.8702 38.464C78.8702 39.36 78.6462 40.152 78.1982 40.84C77.7662 41.512 77.1342 42.04 76.3022 42.424C75.4702 42.808 74.4862 43 73.3502 43H66.1262V26.248H73.0382C74.1742 26.248 75.1502 26.432 75.9662 26.8C76.7982 27.168 77.4222 27.68 77.8382 28.336C78.2702 28.992 78.4862 29.736 78.4862 30.568C78.4862 31.544 78.2222 32.36 77.6942 33.016C77.1822 33.672 76.4942 34.136 75.6302 34.408ZM69.4862 33.16H72.5582C73.3582 33.16 73.9742 32.984 74.4062 32.632C74.8382 32.264 75.0542 31.744 75.0542 31.072C75.0542 30.4 74.8382 29.88 74.4062 29.512C73.9742 29.144 73.3582 28.96 72.5582 28.96H69.4862V33.16ZM72.8702 40.264C73.6862 40.264 74.3182 40.072 74.7662 39.688C75.2302 39.304 75.4622 38.76 75.4622 38.056C75.4622 37.336 75.2222 36.776 74.7422 36.376C74.2622 35.96 73.6142 35.752 72.7982 35.752H69.4862V40.264H72.8702ZM94.628 36.064C94.628 36.544 94.596 36.976 94.532 37.36H84.812C84.892 38.32 85.228 39.072 85.82 39.616C86.412 40.16 87.14 40.432 88.004 40.432C89.252 40.432 90.14 39.896 90.668 38.824H94.292C93.908 40.104 93.172 41.16 92.084 41.992C90.996 42.808 89.66 43.216 88.076 43.216C86.796 43.216 85.644 42.936 84.62 42.376C83.612 41.8 82.82 40.992 82.244 39.952C81.684 38.912 81.404 37.712 81.404 36.352C81.404 34.976 81.684 33.768 82.244 32.728C82.804 31.688 83.588 30.888 84.596 30.328C85.604 29.768 86.764 29.488 88.076 29.488C89.34 29.488 90.468 29.76 91.46 30.304C92.468 30.848 93.244 31.624 93.788 32.632C94.348 33.624 94.628 34.768 94.628 36.064ZM91.148 35.104C91.132 34.24 90.82 33.552 90.212 33.04C89.604 32.512 88.86 32.248 87.98 32.248C87.148 32.248 86.444 32.504 85.868 33.016C85.308 33.512 84.964 34.208 84.836 35.104H91.148ZM96.9365 36.304C96.9365 34.96 97.2005 33.768 97.7285 32.728C98.2725 31.688 99.0085 30.888 99.9365 30.328C100.865 29.768 101.897 29.488 103.033 29.488C103.897 29.488 104.721 29.68 105.505 30.064C106.289 30.432 106.913 30.928 107.377 31.552V25.24H110.785V43H107.377V41.032C106.961 41.688 106.377 42.216 105.625 42.616C104.873 43.016 104.001 43.216 103.009 43.216C101.889 43.216 100.865 42.928 99.9365 42.352C99.0085 41.776 98.2725 40.968 97.7285 39.928C97.2005 38.872 96.9365 37.664 96.9365 36.304ZM107.401 36.352C107.401 35.536 107.241 34.84 106.921 34.264C106.601 33.672 106.169 33.224 105.625 32.92C105.081 32.6 104.497 32.44 103.873 32.44C103.249 32.44 102.673 32.592 102.145 32.896C101.617 33.2 101.185 33.648 100.849 34.24C100.529 34.816 100.369 35.504 100.369 36.304C100.369 37.104 100.529 37.808 100.849 38.416C101.185 39.008 101.617 39.464 102.145 39.784C102.689 40.104 103.265 40.264 103.873 40.264C104.497 40.264 105.081 40.112 105.625 39.808C106.169 39.488 106.601 39.04 106.921 38.464C107.241 37.872 107.401 37.168 107.401 36.352ZM118.146 25.24V43H114.786V25.24H118.146Z" fill="#555555"/>
<path d="M128.875 37.7058V43H122V32.8989C122 32.2763 122.263 31.6786 122.733 31.2352L131.116 23.3449C131.232 23.2357 131.369 23.1489 131.521 23.0897C131.673 23.0305 131.836 23 132 23C132.165 23 132.328 23.0305 132.479 23.0897C132.631 23.1489 132.769 23.2357 132.884 23.3449L141.267 31.2352C141.736 31.6766 142 32.2752 142 32.8989V43H135.125V37.7058C135.125 36.0811 133.726 34.7647 132 34.7647C130.274 34.7647 128.875 36.0811 128.875 37.7058Z" fill="#555555"/>
<path d="M152.098 29.512C153.682 29.512 154.962 30.016 155.938 31.024C156.914 32.016 157.402 33.408 157.402 35.2V43H154.042V35.656C154.042 34.6 153.778 33.792 153.25 33.232C152.722 32.656 152.002 32.368 151.09 32.368C150.162 32.368 149.426 32.656 148.882 33.232C148.354 33.792 148.09 34.6 148.09 35.656V43H144.73V29.704H148.09V31.36C148.538 30.784 149.106 30.336 149.794 30.016C150.498 29.68 151.266 29.512 152.098 29.512ZM160.453 36.304C160.453 34.96 160.717 33.768 161.245 32.728C161.789 31.688 162.525 30.888 163.453 30.328C164.381 29.768 165.413 29.488 166.549 29.488C167.413 29.488 168.237 29.68 169.021 30.064C169.805 30.432 170.429 30.928 170.893 31.552V25.24H174.301V43H170.893V41.032C170.477 41.688 169.893 42.216 169.141 42.616C168.389 43.016 167.517 43.216 166.525 43.216C165.405 43.216 164.381 42.928 163.453 42.352C162.525 41.776 161.789 40.968 161.245 39.928C160.717 38.872 160.453 37.664 160.453 36.304ZM170.917 36.352C170.917 35.536 170.757 34.84 170.437 34.264C170.117 33.672 169.685 33.224 169.141 32.92C168.597 32.6 168.013 32.44 167.389 32.44C166.765 32.44 166.189 32.592 165.661 32.896C165.133 33.2 164.701 33.648 164.365 34.24C164.045 34.816 163.885 35.504 163.885 36.304C163.885 37.104 164.045 37.808 164.365 38.416C164.701 39.008 165.133 39.464 165.661 39.784C166.205 40.104 166.781 40.264 167.389 40.264C168.013 40.264 168.597 40.112 169.141 39.808C169.685 39.488 170.117 39.04 170.437 38.464C170.757 37.872 170.917 37.168 170.917 36.352Z" fill="#555555"/>
</svg>
